<svg xmlns="http://www.w3.org/2000/svg" width="667" height="497" viewBox="0 0 667 497" version="1.1"><path d="M 0 248.501 L 0 497.003 333.750 496.751 L 667.500 496.500 667.752 248.250 L 668.004 0 334.002 0 L 0 0 0 248.501 M 0.492 249 C 0.492 385.675, 0.608 441.588, 0.750 373.250 C 0.892 304.913, 0.892 193.088, 0.750 124.750 C 0.608 56.413, 0.492 112.325, 0.492 249 M 121.734 3.075 C 115.768 4.502, 110.666 7.520, 106.585 12.038 C 99.265 20.140, 99.556 17.720, 99 75 L 98.500 126.500 65 127 C 26.779 127.570, 27.573 127.403, 18.872 136.706 C 5.171 151.353, 10.142 174.872, 28.914 184.217 C 33.365 186.433, 34.463 186.509, 66.141 186.800 L 98.782 187.100 99.187 197.800 C 99.493 205.867, 100.107 209.637, 101.684 213.122 C 104.374 219.070, 110.113 225.394, 115.916 228.805 L 120.500 231.500 206 231.500 L 291.500 231.500 297 228.784 C 307.783 223.459, 314.904 215.159, 318.923 203.228 C 320.961 197.180, 321 195.457, 321 112.569 C 321 28.602, 320.987 28.039, 318.854 22.338 C 316.141 15.087, 309.549 7.949, 302.714 4.858 L 297.500 2.500 211.500 2.337 C 163.297 2.246, 123.845 2.570, 121.734 3.075 M 371.205 3.894 C 363.890 6.421, 359.224 10.515, 355.053 18.068 L 351.500 24.500 351.500 112.552 L 351.500 200.604 355.182 208.052 C 359.571 216.929, 365.919 223.591, 374.346 228.162 L 380.500 231.500 464.814 231.777 L 549.128 232.055 555.076 229.385 C 561.784 226.375, 566.628 221.544, 570.715 213.786 L 573.500 208.500 573.500 117 C 573.500 39.950, 573.274 24.947, 572.070 22 C 569.699 16.197, 565.410 10.556, 561.097 7.567 C 553.127 2.044, 552.869 2.030, 461 2.048 C 381.757 2.064, 376.171 2.179, 371.205 3.894 M 28.797 11.742 C 13.576 17.433, 4.127 31.549, 5.229 46.951 C 6.149 59.812, 13.342 70.582, 24.771 76.208 C 30.755 79.154, 32.353 79.499, 39.979 79.490 C 46.693 79.483, 49.543 79.001, 53.420 77.221 C 61.421 73.547, 66.548 68.664, 70.200 61.239 C 73.274 54.990, 73.499 53.846, 73.479 44.515 C 73.461 36.184, 73.080 33.736, 71.214 29.953 C 68.125 23.692, 60.791 16.536, 54.098 13.252 C 46.923 9.731, 35.930 9.075, 28.797 11.742 M 622.243 32.651 C 603.302 41.988, 607.575 70.552, 628.232 72.684 C 633.944 73.274, 641.178 70.957, 645.320 67.212 C 653.205 60.081, 653.356 45.651, 645.633 37.153 C 640.315 31.300, 629.289 29.178, 622.243 32.651 M 619.282 118.050 C 612.556 120.713, 605.572 127.545, 602.181 134.780 C 599.895 139.657, 599.500 141.827, 599.500 149.500 C 599.500 157.601, 599.795 159.033, 602.458 163.839 C 606.731 171.555, 614.841 178.607, 621.748 180.615 C 642.096 186.531, 662.404 172.347, 663.787 151.254 C 664.397 141.950, 662.796 136.301, 657.512 129.124 C 651.450 120.890, 643.332 116.727, 632.500 116.300 C 626.227 116.053, 623.374 116.431, 619.282 118.050 M 621.183 227.554 C 613.778 231.303, 610.656 236.234, 610.207 244.889 C 609.894 250.922, 610.154 251.975, 613.182 256.935 C 617.376 263.806, 622.934 267, 630.697 267 C 643.401 267, 653.480 255.658, 651.543 243.542 C 649.192 228.840, 634.220 220.955, 621.183 227.554 M 27 229.154 C 19.178 232.237, 10.063 241.541, 7.065 249.500 C 0.919 265.813, 8.898 284.411, 25.543 292.570 C 33.370 296.408, 44.731 296.669, 52.420 293.189 C 63.055 288.375, 69.751 280.472, 72.702 269.250 C 76.655 254.213, 68.706 237.407, 54.311 230.364 C 46.523 226.553, 34.900 226.038, 27 229.154 M 122.500 261.384 C 113.589 264.235, 106.347 270.414, 101.855 279 C 99.585 283.337, 99.488 284.448, 99.177 309.632 L 98.855 335.765 66.677 336.507 C 36.223 337.209, 34.224 337.370, 29.342 339.529 C 23.170 342.257, 17.064 348.277, 13.889 354.764 C 10.603 361.479, 10.597 372.669, 13.878 379 C 16.840 384.718, 23.346 391.540, 28.500 394.333 C 32.312 396.398, 34.052 396.524, 65.500 397 L 98.500 397.500 99 433 L 99.500 468.500 102.306 474.214 C 103.897 477.454, 107.107 481.685, 109.719 483.984 C 118.085 491.348, 113.955 491.076, 212.579 490.771 L 300.500 490.500 304.500 488.335 C 309.590 485.579, 315.127 479.762, 318.144 474 C 320.488 469.522, 320.502 469.287, 321 426 L 321.500 382.500 336.210 382.223 L 350.921 381.947 351.210 425.723 C 351.498 469.182, 351.517 469.531, 353.793 473.795 C 357.284 480.333, 362.954 486.059, 368.500 488.647 L 373.500 490.980 461.068 490.990 C 560.224 491.001, 555.505 491.350, 564.016 483.388 C 566.652 480.923, 569.839 476.595, 571.142 473.714 L 573.500 468.500 573.786 419.750 L 574.072 371 605.355 371 C 640.803 371, 643.545 370.589, 651.833 364.038 C 659.221 358.198, 662.516 350.889, 662.446 340.500 C 662.401 333.845, 661.941 331.628, 659.711 327.313 C 654.814 317.837, 646.942 312.075, 636.079 310.015 C 633.135 309.457, 618.011 309, 602.469 309 L 574.211 309 573.832 297.250 C 573.506 287.152, 573.084 284.706, 570.828 279.852 C 567.637 272.983, 561.849 267.007, 554.784 263.284 L 549.500 260.500 466.500 260.500 C 389.254 260.500, 383.188 260.623, 379 262.281 C 367.821 266.705, 358.418 276.239, 353.872 287.757 C 351.955 292.614, 351.544 295.858, 351.212 308.776 L 350.820 324.052 336.160 323.776 L 321.500 323.500 320.963 309 C 320.535 297.439, 319.998 293.437, 318.311 289.255 C 313.161 276.484, 306.361 268.962, 295.180 263.665 L 288.500 260.500 207.500 260.302 C 144.009 260.147, 125.635 260.381, 122.500 261.384 M 624.728 419.275 C 609.515 424.215, 604.983 443.112, 616.225 454.728 C 620.256 458.892, 627.714 461.420, 633.439 460.561 C 647.042 458.522, 655.643 443.538, 650.121 431.500 C 645.453 421.324, 634.564 416.081, 624.728 419.275 M 27.241 441.567 C 9.527 450.395, 5.559 473.690, 19.411 487.542 C 30.946 499.077, 49.043 499.087, 60.565 487.565 C 66.557 481.573, 69.010 475.452, 68.978 466.572 C 68.940 456.078, 62.310 445.931, 52.500 441.353 C 45.213 437.952, 34.310 438.045, 27.241 441.567" stroke="none" fill="#ffffff" fill-rule="evenodd"/><path d="M 125 3.013 C 114.541 3.989, 106.195 10.031, 101.606 19.949 C 99.565 24.360, 99.491 26.074, 99.208 75.700 L 98.915 126.900 65.708 127.200 C 33.044 127.495, 32.426 127.539, 28 129.858 C 21.853 133.079, 17.323 137.550, 14.180 143.500 C 10.576 150.323, 10.382 162.327, 13.773 168.722 C 16.956 174.724, 21.548 179.649, 26.887 182.788 C 31.443 185.466, 31.791 185.508, 55 186.155 C 67.925 186.516, 83.061 186.853, 88.637 186.905 L 98.773 187 99.174 197.250 C 99.499 205.589, 100.052 208.534, 102.138 213.046 C 105.517 220.353, 109.683 224.954, 116.181 228.554 L 121.500 231.500 206 231.500 L 290.500 231.500 297.074 228.283 C 304.356 224.719, 312.463 216.933, 315.894 210.207 C 321.022 200.157, 321 200.571, 321 112.395 C 321 33.106, 320.930 29.983, 319.005 23.752 C 316.403 15.329, 311.059 9.193, 303.308 5.731 L 297.500 3.136 214 2.818 C 168.075 2.643, 128.025 2.731, 125 3.013 M 375.223 3.122 C 368.045 4.436, 361.091 8.894, 357.289 14.620 C 350.771 24.437, 350.998 20.913, 351.024 111.909 C 351.040 163.920, 351.423 196.124, 352.060 198.885 C 355.393 213.345, 366.046 225.371, 379.673 230.060 C 385.073 231.917, 388.745 232, 465.998 232 C 553.854 232, 551.878 232.119, 560.275 226.319 C 566.285 222.166, 571.577 213.393, 572.993 205.230 C 573.841 200.345, 574.071 174.792, 573.831 112 C 573.502 26.102, 573.485 25.468, 571.363 20.878 C 568.578 14.854, 562.672 8.386, 557.568 5.769 C 554.896 4.399, 551.098 3.573, 546.500 3.360 C 530.377 2.615, 379.144 2.405, 375.223 3.122 M 30.500 11.338 C 24.085 13.464, 20.590 15.605, 15.571 20.483 C 6.727 29.079, 3.130 42.057, 6.439 53.438 C 8.623 60.949, 11.586 65.543, 17.923 71.241 C 24.321 76.993, 31.142 79.467, 40.500 79.430 C 53.197 79.379, 64.010 72.517, 70.331 60.500 C 73.228 54.993, 73.488 53.720, 73.494 45 C 73.499 36.636, 73.169 34.825, 70.730 29.858 C 63.653 15.448, 44.587 6.671, 30.500 11.338 M 622.271 33.031 C 607.289 40.674, 605.995 60.341, 619.860 69.685 C 627.712 74.976, 638.788 73.209, 645.861 65.535 C 654.374 56.299, 652.123 40.566, 641.336 33.899 C 636.204 30.727, 627.558 30.334, 622.271 33.031 M 423.720 33.761 L 381.941 34.022 382.220 110.761 C 382.486 183.699, 382.594 187.689, 384.391 191.306 C 385.431 193.400, 387.870 196.325, 389.812 197.806 L 393.343 200.500 468.177 200.775 L 543.011 201.049 542.756 117.275 L 542.500 33.500 504 33.500 C 482.825 33.500, 446.699 33.617, 423.720 33.761 M 130 117.629 L 130 201.258 204.355 200.806 C 288.569 200.294, 283.026 200.874, 287.676 192.080 L 290 187.685 290 110.843 L 290 34 210 34 L 130 34 130 117.629 M 622.500 117.335 C 615.886 119.533, 612.611 121.614, 608.150 126.454 C 597.107 138.434, 596.187 155.742, 605.907 168.654 C 620.868 188.529, 650.815 185.029, 661.329 162.176 C 664.454 155.384, 664.355 142.497, 661.122 135.286 C 658.300 128.990, 650.805 121.704, 644.259 118.893 C 638.253 116.313, 627.822 115.566, 622.500 117.335 M 625.994 225.934 C 613.091 229.859, 607.226 240.886, 611.539 253.110 C 617.602 270.294, 640.863 271.849, 649.181 255.627 C 656.954 240.465, 641.842 221.113, 625.994 225.934 M 30.286 228.387 C 19.939 231.778, 12.689 238.173, 8.101 247.954 C 5.954 252.531, 5.510 254.897, 5.556 261.500 C 5.604 268.420, 6.030 270.315, 8.712 275.537 C 10.418 278.857, 13.914 283.510, 16.482 285.876 C 31.187 299.431, 51.132 298.483, 64.752 283.581 C 79.942 266.961, 74.052 239.547, 53.322 230.379 C 46.322 227.283, 36.298 226.416, 30.286 228.387 M 123.500 261.381 C 111.240 265.312, 104.025 272.442, 100.584 284.028 C 99.333 288.243, 99 294.353, 99 313.131 L 99 336.899 66.250 337.199 L 33.500 337.500 28.437 340.172 C 10.294 349.747, 6.107 372.414, 19.816 386.843 C 22.392 389.555, 26.525 392.837, 29 394.137 C 33.425 396.461, 34.046 396.505, 66.203 396.800 L 98.905 397.101 99.203 432.300 L 99.500 467.500 102.120 473.086 C 105.310 479.889, 110.776 485.540, 116.911 488.377 C 121.480 490.491, 121.893 490.500, 210.500 490.500 C 293.968 490.500, 299.737 490.389, 303.318 488.708 C 308.558 486.249, 315.717 478.852, 318.330 473.196 C 320.435 468.641, 320.509 467.203, 320.790 425.250 L 321.080 382 336 382 L 350.920 382 351.210 425.250 L 351.500 468.500 354.682 474.587 C 358.125 481.173, 362.923 485.991, 368.787 488.752 C 372.235 490.375, 378.886 490.500, 462 490.500 L 551.500 490.500 556.788 488.111 C 563.079 485.268, 569.133 478.777, 571.632 472.195 C 573.233 467.979, 573.451 462.579, 573.768 419.312 L 574.121 371.123 606.811 370.812 C 638.457 370.510, 639.660 370.427, 644.500 368.202 C 663.530 359.456, 668.432 335.553, 654.383 320.003 C 645.857 310.565, 638.128 309.019, 599.389 309.008 L 574.279 309 573.726 297.750 C 573.400 291.109, 572.480 284.539, 571.481 281.714 C 569.179 275.207, 561.251 266.762, 554.190 263.294 L 548.500 260.500 471 260.206 C 417.826 260.004, 391.460 260.258, 387 261.014 C 370.320 263.843, 359.128 273.640, 353.532 290.310 C 351.336 296.850, 351 299.590, 351 310.926 L 351 324 336 324 L 321 324 321 311.426 C 321 300.614, 320.644 297.793, 318.460 291.285 C 313.772 277.322, 305.193 267.753, 292.814 262.678 C 287.522 260.509, 287.163 260.499, 207.500 260.299 C 144.716 260.142, 126.639 260.375, 123.500 261.381 M 393.500 292.493 C 388.514 294.253, 384.520 298.877, 383.093 304.543 C 382.350 307.495, 382 333.080, 382 384.443 L 382 460 462.506 460 L 543.011 460 542.756 375.750 L 542.500 291.500 470 291.290 C 409.724 291.116, 396.826 291.319, 393.500 292.493 M 130 376 L 130 460 209.393 460 C 280.867 460, 288.847 459.842, 289.393 458.418 C 290.477 455.594, 290.091 304, 289 304 C 288.450 304, 288 303.321, 288 302.491 C 288 300.492, 283.186 295.155, 279.800 293.399 C 277.557 292.237, 264.626 292, 203.550 292 L 130 292 130 376 M 619.433 422.250 C 613.011 426.604, 610.498 431.602, 610.507 440 C 610.514 445.548, 610.954 447.159, 613.514 451 C 617.356 456.763, 623.518 460, 630.647 460 C 637.265 460, 639.918 458.972, 644.888 454.482 C 649.715 450.121, 652.549 442.741, 651.514 437.225 C 649.379 425.844, 641.357 419, 630.153 419 C 625.116 419, 623.506 419.488, 619.433 422.250 M 28.500 441.312 C 9.809 450.347, 5.452 473.083, 19.684 487.316 C 28.769 496.401, 41.566 498.383, 53.485 492.551 C 73.714 482.654, 73.934 453.446, 53.862 442.521 C 46.275 438.392, 35.594 437.882, 28.500 441.312" stroke="none" fill="#002c40" fill-rule="evenodd"/><path d="M 181.250 2.749 C 195.963 2.905, 220.037 2.905, 234.750 2.749 C 249.463 2.593, 237.425 2.466, 208 2.466 C 178.575 2.466, 166.537 2.593, 181.250 2.749 M 271.250 2.743 C 275.512 2.931, 282.488 2.931, 286.750 2.743 C 291.012 2.556, 287.525 2.402, 279 2.402 C 270.475 2.402, 266.988 2.556, 271.250 2.743 M 448.250 2.750 C 466.262 2.902, 495.738 2.902, 513.750 2.750 C 531.763 2.597, 517.025 2.472, 481 2.472 C 444.975 2.472, 430.238 2.597, 448.250 2.750 M 130 117.629 L 130 201.258 204.355 200.806 C 288.569 200.294, 283.026 200.874, 287.676 192.080 L 290 187.685 290 110.843 L 290 34 210 34 L 130 34 130 117.629 M 45.199 186.744 C 49.984 186.927, 58.084 186.928, 63.199 186.746 C 68.315 186.564, 64.400 186.414, 54.500 186.413 C 44.600 186.412, 40.415 186.561, 45.199 186.744 M 417.817 291.749 C 429.542 291.909, 448.442 291.909, 459.817 291.749 C 471.193 291.588, 461.600 291.457, 438.500 291.458 C 415.400 291.458, 406.093 291.589, 417.817 291.749 M 493.250 291.747 C 499.712 291.921, 510.288 291.921, 516.750 291.747 C 523.212 291.573, 517.925 291.430, 505 291.430 C 492.075 291.430, 486.788 291.573, 493.250 291.747 M 535.476 291.719 C 538.763 291.936, 541.835 292.650, 542.302 293.307 C 542.898 294.142, 543.031 294.051, 542.747 293 C 542.443 291.877, 540.728 291.478, 535.921 291.412 L 529.500 291.324 535.476 291.719 M 542.300 309 C 542.300 312.025, 542.487 313.262, 542.716 311.750 C 542.945 310.238, 542.945 307.762, 542.716 306.250 C 542.487 304.738, 542.300 305.975, 542.300 309 M 542.407 336 C 542.407 345.075, 542.559 348.788, 542.744 344.250 C 542.929 339.712, 542.929 332.288, 542.744 327.750 C 542.559 323.212, 542.407 326.925, 542.407 336 M 74.750 336.744 C 79.287 336.929, 86.713 336.929, 91.250 336.744 C 95.787 336.559, 92.075 336.407, 83 336.407 C 73.925 336.407, 70.213 336.559, 74.750 336.744 M 542.462 401 C 542.462 427.125, 542.591 437.813, 542.749 424.750 C 542.907 411.688, 542.907 390.313, 542.749 377.250 C 542.591 364.188, 542.462 374.875, 542.462 401 M 542.300 455 C 542.300 458.025, 542.487 459.262, 542.716 457.750 C 542.945 456.238, 542.945 453.762, 542.716 452.250 C 542.487 450.738, 542.300 451.975, 542.300 455" stroke="none" fill="#09b6ff" fill-rule="evenodd"/><path d="M 473.762 33.707 C 475.006 33.946, 476.806 33.937, 477.762 33.687 C 478.718 33.437, 477.700 33.241, 475.500 33.252 C 473.300 33.263, 472.518 33.468, 473.762 33.707 M 513.750 33.706 C 514.987 33.944, 517.013 33.944, 518.250 33.706 C 519.487 33.467, 518.475 33.272, 516 33.272 C 513.525 33.272, 512.513 33.467, 513.750 33.706 M 535.264 33.718 C 536.784 33.947, 539.034 33.941, 540.264 33.704 C 541.494 33.467, 540.250 33.279, 537.500 33.286 C 534.750 33.294, 533.744 33.488, 535.264 33.718 M 382.422 164 C 382.422 175.275, 382.568 179.887, 382.746 174.250 C 382.924 168.613, 382.924 159.387, 382.746 153.750 C 382.568 148.113, 382.422 152.725, 382.422 164 M 130 376 L 130 460 209.393 460 C 280.867 460, 288.847 459.842, 289.393 458.418 C 290.477 455.594, 290.091 304, 289 304 C 288.450 304, 288 303.321, 288 302.491 C 288 300.492, 283.186 295.155, 279.800 293.399 C 277.557 292.237, 264.626 292, 203.550 292 L 130 292 130 376" stroke="none" fill="#ff382d" fill-rule="evenodd"/><path d="M 437 291.758 C 390.724 292.039, 390.116 292.111, 386.234 297.772 C 382.094 303.808, 382 305.732, 382 384.366 L 382 460 462 460 L 542 460 541.990 454.750 C 541.985 451.863, 542.049 414.276, 542.132 371.225 C 542.215 328.173, 542.059 292.726, 541.786 292.453 C 541.119 291.785, 489.191 291.441, 437 291.758" stroke="none" fill="#02cf87" fill-rule="evenodd"/><path d="M 382.283 110.654 L 382.888 187.308 385.221 191.904 C 386.935 195.280, 388.735 197.099, 392.002 198.756 L 396.450 201.013 469.475 200.756 L 542.500 200.500 542.756 117.250 L 543.011 34 462.345 34 L 381.678 34 382.283 110.654" stroke="none" fill="#feca05" fill-rule="evenodd"/></svg>